<?xml version="1.0" encoding="UTF-8" standalone="no"?> <!-- Created with Vectornator for iOS (http://vectornator.io/) --> <svg xmlns:vectornator="http://vectornator.io" xmlns:xlink="http://www.w3.org/1999/xlink" xmlns="http://www.w3.org/2000/svg" style="fill-rule:evenodd;clip-rule:evenodd;stroke-linecap:round;stroke-linejoin:round;" xml:space="preserve" viewBox="0 0 120 120"> <metadata> </metadata> <defs></defs> <g id="Untitled" vectornator:layerName="Untitled"> <path d="M45.6119+28.8704L36.6067+23.6712L61.5963+9.24334L48.2385+1.53117L5.53838+26.1841L58.0692+56.5129L75.7798+46.2878L58.97+36.5826L80.8826+23.9311L67.5248+16.219L45.6119+28.8704ZM57.4643+57.8113L57.4643+118.469L42.9058+110.063L22.944+70.9827L22.944+98.5385L5.68387+88.5733L5.68387+27.9159L20.2425+36.3212L40.2043+75.402L40.2043+47.8461L57.4643+57.8113ZM58.7735+57.8089L84.7308+42.9779C90.5996+39.6248+95.7663+37.9149+100.231+37.8484C104.747+37.6955+108.234+39.1988+110.694+42.3582C113.203+45.4888+114.46+50.1449+114.462+56.3264C114.464+62.5076+113.212+68.5966+110.706+74.5933C108.25+80.5613+104.765+86.077+100.252+91.1404C95.7885+96.1174+90.6225+100.282+84.754+103.635L58.7967+118.466L58.7735+57.8089ZM83.9956+88.121C87.8077+85.9429+90.8419+82.9668+93.098+79.1933C95.4044+75.333+96.5566+71.1213+96.5548+66.5574C96.5531+61.9936+95.3982+59.1288+93.0901+57.9631C90.8319+56.7108+87.7966+57.1739+83.9845+59.352L76.5361+63.6077L76.5469+92.3767L83.9956+88.121Z" fill-rule="evenodd" fill="#000000" opacity="1"></path> </g> </svg> 