<?xml version="1.0" encoding="utf-8"?>
<!-- Generator: Adobe Illustrator 18.0.0, SVG Export Plug-In . SVG Version: 6.00 Build 0)  -->
<!DOCTYPE svg PUBLIC "-//W3C//DTD SVG 1.1//EN" "http://www.w3.org/Graphics/SVG/1.1/DTD/svg11.dtd">
<svg version="1.1" id="Layer_1" xmlns="http://www.w3.org/2000/svg" xmlns:xlink="http://www.w3.org/1999/xlink" x="0px" y="0px"
	 viewBox="67.5 232.5 465 135" enable-background="new 67.5 232.5 465 135" xml:space="preserve">
<path fill="#D60000" d="M263.5,280.6l-15.4-30.5l-15.4,30.5l-34,4.9l24.7,23.8l-5.8,33.7l30.5-16l30.5,16l-5.8-33.7l24.7-23.8
	 M142.8,236.7v-0.5l-27,39.2c-5.2,7.6-8.7,13.1-10.5,16.3v-55.5H70.5v128.1h34.8v-42.8l10.2-6.1l25.3,49.1h38.9l-39.8-70.6
	l40.4-57.2H142.8z M401.3,285.5c-5.8-3.5-12.5-5.2-20.1-5.2H376c-2,0-5.2,0.6-9.6,1.4l1.4-16.8h43.6v-28.8h-72.9l-4.9,67.7l12.8,6.4
	c6.4-2,12.2-3.2,17.7-3.2c7.3,0,12.5,1.4,16,4.1c3.5,2.7,5.2,6.7,5.2,11.6c0,5.2-1.7,9.3-5.2,11.9c-3.5,2.7-8.4,4.1-14.8,4.1
	c-4.6,0-10.2-0.9-16.6-2.3c-6.4-1.4-12.2-3.5-17.1-5.8V359c9.6,4.6,21.8,7,36.6,7c17.4,0,30.5-3.8,39.2-11.4
	c8.7-7.6,12.8-18.6,12.8-32.8c0-8.1-1.7-15.4-4.9-21.5C412,293.7,407.3,289,401.3,285.5L401.3,285.5z M520.9,251
	c-7.8-11.1-19.2-16.6-34.5-16.6c-15.7,0-27.3,5.2-34.8,16c-7.6,10.8-11.4,27.3-11.4,49.9c0,21.8,3.8,38,11.6,49.1
	c7.9,11.1,19.2,16.6,34.5,16.6c15.7,0,27.3-5.2,34.8-15.7s11.4-27,11.4-49.7C532.6,278.6,528.8,262,520.9,251z M495.4,329.9
	c-1.7,5.5-4.9,8.4-9,8.4c-4.4,0-7.3-2.7-9-8.1c-1.7-5.5-2.7-15.4-2.7-29.9s0.9-24.7,2.7-30.2c1.7-5.5,4.9-8.1,9-8.1
	c4.4,0,7.3,2.9,9,8.4c1.7,5.8,2.7,15.7,2.7,29.9C498.3,314.6,497.1,324.4,495.4,329.9L495.4,329.9z"/>
</svg>
